<svg xmlns="http://www.w3.org/2000/svg" xmlns:xlink="http://www.w3.org/1999/xlink" width="512" zoomAndPan="magnify" viewBox="0 0 384 383.999986" height="512" preserveAspectRatio="xMidYMid meet" version="1.0"><path fill="#8eba3f" d="M 357.390625 1.457031 C 359.703125 16.917969 354.136719 29.363281 351.929688 43.664062 C 350.070312 55.710938 349.109375 68.476562 346.984375 80.796875 C 344.902344 92.875 342.621094 104.800781 341.3125 117.332031 C 339.011719 139.382812 334.980469 158.625 326.574219 181.210938 C 318.976562 201.617188 305.476562 228.101562 290.171875 249.261719 C 283.875 257.964844 275.269531 262.960938 268.414062 269.835938 C 259.363281 278.921875 254.164062 290.703125 244.175781 299.363281 C 236.042969 306.414062 224.910156 312.097656 215.09375 318.496094 C 205.917969 324.480469 195.617188 329.671875 185.628906 333.65625 C 175.726562 337.601562 164.261719 339.367188 154.050781 342.5 C 133.851562 348.703125 116.234375 355.140625 91.769531 339.859375 C 96.101562 331.480469 100.734375 323.992188 109.210938 323.058594 C 113.449219 322.589844 120.710938 325.0625 126.21875 326.042969 C 142.441406 328.933594 158.949219 326.808594 174.394531 328.089844 C 178.121094 325.097656 183.34375 328.242188 186.65625 323.515625 C 181.839844 322.074219 178.390625 324.96875 174.285156 325.253906 C 170.90625 325.488281 166.496094 324.042969 162.984375 324.207031 C 159.378906 324.375 156.347656 325.949219 152.960938 326.042969 C 138.082031 326.480469 122.359375 323.273438 106.753906 320.125 C 111.609375 314.65625 117.933594 310.179688 122.84375 304.964844 C 125.085938 302.582031 126.359375 298.925781 129.128906 297.308594 C 132.03125 295.617188 136.773438 297.117188 140.152344 297.214844 C 144.398438 297.328125 147.632812 297.023438 151.175781 297.113281 C 163.136719 303.566406 175.445312 302.5 187.539062 303.183594 C 193.953125 303.546875 206.054688 304.871094 211.660156 301.945312 C 218.382812 298.425781 226.113281 293.757812 233.28125 290.410156 C 239.71875 287.410156 244.425781 285.84375 251.875 285.542969 C 231.742188 281.757812 214.777344 301.9375 194.761719 301.792969 C 190.316406 301.757812 184.984375 300.242188 180.382812 300.050781 C 175.945312 299.859375 171.316406 300.667969 167.007812 300.046875 C 161.738281 299.289062 156.21875 296.53125 150.175781 295.375 C 144.949219 294.371094 139.15625 295.597656 133.449219 293.53125 C 141.972656 281.980469 149.292969 276.195312 158.6875 265.746094 C 180.742188 266.652344 205.242188 272.050781 227.84375 270.378906 C 235.085938 269.839844 243.730469 269.066406 249.507812 266.207031 C 253.792969 264.085938 256.855469 259.9375 261.386719 257.65625 C 263.214844 256.738281 266.015625 256.613281 267.886719 255.667969 C 274.386719 252.382812 279.480469 249.648438 287.09375 248.5625 C 273.207031 245.148438 261.457031 257.480469 248.675781 262.773438 C 233.074219 269.238281 217.121094 267.265625 200.539062 268.085938 C 186.960938 264.839844 174.183594 264.890625 160.65625 261.871094 C 169.863281 247.894531 179.632812 236.277344 189.101562 225.734375 C 200.550781 225.46875 211.953125 223.832031 224.078125 226.085938 C 250.914062 231.078125 275.867188 227.15625 301.03125 219.734375 C 298.300781 217.59375 292.640625 218.113281 289.734375 218.691406 C 280.96875 220.410156 274.304688 223.921875 266.273438 225.050781 C 243.761719 228.195312 216.886719 222.316406 192.246094 221.910156 C 200.675781 213.4375 208.101562 201.539062 216.761719 193.527344 C 227.863281 183.253906 247.480469 190.019531 260.816406 185.777344 C 281.8125 191.628906 301.953125 193.949219 319.738281 186.578125 C 313.085938 185.511719 307.136719 187.363281 301.320312 189.757812 C 296.070312 187.726562 290.046875 188.246094 284.59375 187.917969 C 279.316406 187.597656 273.875 188.253906 269.488281 185.578125 C 280.644531 182.824219 292.976562 177.179688 305.109375 171.8125 C 312.578125 168.507812 318.832031 165.628906 327.671875 166.546875 C 324.738281 163.164062 315.902344 163.777344 312.117188 164.753906 C 301.890625 167.414062 292.613281 175.871094 281.925781 179.316406 C 279.46875 180.109375 276.003906 180.441406 273.078125 181.207031 C 258.933594 184.90625 239.953125 185.058594 225.566406 184.285156 C 231.511719 176.664062 236.582031 168.847656 242.515625 160.671875 C 246.316406 155.429688 250.117188 148.335938 253.457031 145.859375 C 259.246094 141.570312 268.007812 144.503906 272.941406 139.898438 C 296.859375 140.210938 319.015625 133.273438 339.246094 118.382812 C 330.65625 117.039062 325.222656 122.941406 319.585938 126.035156 C 301.292969 136.070312 278.777344 136.285156 258.671875 140.988281 C 257.855469 138.003906 258.984375 136.726562 260.085938 134.824219 C 264.902344 126.507812 275.046875 116.609375 280.453125 108.53125 C 281.746094 106.597656 282.351562 104.265625 283.765625 103.015625 C 287.21875 99.960938 293.28125 100.378906 299.105469 99.136719 C 313.945312 95.984375 328.558594 86.839844 342.847656 82.890625 C 333.265625 79.894531 324.867188 86.480469 316.136719 90.242188 C 307.664062 93.898438 299.058594 97.761719 289.878906 97.050781 C 291.46875 86.96875 298.957031 81.933594 304.757812 74.480469 C 306.886719 71.738281 307.683594 67.859375 310.3125 66.230469 C 313.410156 64.3125 318.195312 66.347656 322.960938 65.636719 C 332.933594 64.152344 340.992188 57.613281 349.285156 54.304688 C 340.203125 53.285156 332.789062 60.433594 324.480469 62.304688 C 321.082031 63.070312 316.078125 64.144531 313.175781 61.257812 C 328.984375 42.058594 342.839844 28.65625 355.710938 6.484375 C 350.667969 5.957031 351 10.582031 349.148438 12.996094 C 340.074219 24.820312 330.960938 35.871094 318.523438 47.339844 C 317.484375 38.808594 324.285156 30.613281 323.445312 22.089844 C 335.199219 17.042969 345.617188 6.460938 357.390625 1.457031 Z M 357.390625 1.457031 " fill-opacity="1" fill-rule="evenodd"/><path fill="#8eba3f" d="M 322.222656 20.59375 C 317.375 42.277344 309.714844 59.449219 289.582031 76.097656 C 287.757812 62.699219 291.902344 49.960938 296.460938 37.265625 C 282.136719 48.722656 291.105469 70.691406 282.160156 85.605469 C 277.480469 93.414062 270.199219 99.371094 263.488281 108.796875 C 261.128906 104.148438 261.453125 99.765625 261.425781 95.375 C 261.402344 90.804688 262.8125 87.511719 263.632812 83 C 264.875 76.203125 262.898438 67.402344 264.476562 60.714844 C 265.230469 57.511719 268.9375 55.417969 267.855469 51.335938 C 259.078125 55.816406 262.609375 67.914062 261.769531 76.484375 C 261.242188 81.851562 258.882812 86.289062 258.355469 91.597656 C 257.546875 99.8125 261.453125 109.265625 257.980469 116.222656 C 252.574219 127.050781 241.074219 132.566406 233.570312 145.667969 C 230.292969 144.175781 231.519531 140.707031 230.996094 138.5 C 227.464844 123.652344 225.894531 110.8125 228.863281 95.238281 C 229.71875 90.761719 229.855469 86.945312 230.839844 81.6875 C 231.515625 78.101562 233.523438 73.878906 234.71875 68.917969 C 235.164062 67.0625 236.433594 63.445312 234.289062 60.839844 C 243.261719 58.234375 251.546875 53.660156 261.207031 50.027344 C 263.921875 49.007812 267.53125 48.835938 270.015625 47.554688 C 274.570312 45.203125 277.980469 41.140625 282.1875 38.566406 C 294.539062 31.011719 308.054688 25.214844 322.222656 20.59375 Z M 322.222656 20.59375 " fill-opacity="1" fill-rule="evenodd"/><path fill="#8eba3f" d="M 229.195312 62.175781 C 229.921875 62.628906 229.730469 62.996094 229.488281 63.359375 C 225.738281 80.152344 220.96875 99.40625 222.691406 117.195312 C 223.847656 129.128906 230.703125 141.890625 228.957031 154.273438 C 216.183594 167.792969 208.585938 179.578125 195.503906 191.742188 C 180.199219 170.511719 187.480469 149.949219 188.0625 128.484375 C 188.144531 125.441406 187 122.273438 186.914062 119.109375 C 186.804688 114.792969 187.203125 109.363281 187.480469 104.675781 C 187.972656 96.359375 190.734375 89.734375 191.304688 81.855469 C 182.820312 90.726562 184.484375 105.507812 184.945312 118.347656 C 185.691406 139.183594 180.820312 158.042969 185.246094 179.207031 C 188.457031 184.71875 191.058594 190.175781 192.277344 195.5 C 181.746094 205.253906 168.554688 221.925781 156.976562 235.117188 C 151.59375 224.550781 152.082031 214.476562 151.730469 204.507812 C 150.871094 180.023438 147.53125 155.554688 152.289062 130.398438 C 153.992188 121.382812 155.34375 112.605469 159.039062 102.632812 C 150.675781 110.785156 150.285156 124.320312 148.140625 135.230469 C 143.824219 157.230469 148.597656 180.777344 149.753906 203.746094 C 150.332031 215.175781 149.660156 226.480469 154.214844 238.339844 C 145.269531 249.40625 135.035156 259.644531 127.5 269.476562 C 127.425781 248.230469 116.132812 223.855469 112.335938 201.453125 C 110.816406 192.5 110.535156 183.273438 110.410156 174.625 C 110.277344 165.839844 112.484375 157.703125 112.128906 148.128906 C 97.992188 187.960938 124.765625 231.566406 123.519531 272.585938 C 118.507812 279.507812 112.585938 282.769531 107.269531 288.46875 C 103.640625 285.117188 104.640625 281.347656 103.394531 277.683594 C 102.21875 274.226562 99.628906 270.4375 98.300781 266.785156 C 97.90625 265.6875 98.816406 265.214844 98.171875 263.875 C 95.625 258.5625 93.285156 251.886719 91.304688 245.859375 C 85.25 227.410156 80.445312 209.527344 82.582031 191.753906 C 80.269531 195.257812 79.964844 200.914062 80.046875 205.425781 C 80.542969 232.480469 98.207031 263.761719 103.289062 291.578125 C 97.261719 296.808594 91.484375 303.039062 85.363281 307.886719 C 75.242188 290.921875 71.492188 274.546875 71.277344 258.5 C 67.523438 259.214844 70.269531 264.316406 70.453125 267.109375 C 71.089844 276.910156 73.707031 288 76.457031 298.371094 C 79.265625 302.105469 81.6875 305.808594 81.550781 309.269531 C 80.191406 312.800781 75.019531 316.75 71.285156 318.171875 C 62.941406 304.269531 64.410156 291.273438 61.238281 277.847656 C 63.054688 272.046875 62.339844 264.867188 62.300781 258.246094 C 62.257812 251.421875 62.742188 245.542969 63.359375 238.648438 C 64.800781 222.59375 63.011719 204.277344 69.660156 189.980469 C 78.660156 170.636719 97.316406 156.632812 110.0625 139.828125 C 116.453125 131.394531 126.726562 117.113281 139.667969 108.375 C 143.660156 105.683594 149.867188 103.6875 154.796875 99.921875 C 166.773438 90.777344 177.199219 82.792969 190.121094 77.109375 C 203.253906 71.332031 215.894531 66.660156 229.191406 62.175781 Z M 229.195312 62.175781 " fill-opacity="1" fill-rule="evenodd"/><path fill="#8eba3f" d="M 262.425781 112.996094 C 264.339844 114.421875 265.140625 115.4375 265.136719 116.152344 C 250.835938 142.925781 232.34375 166.511719 215.867188 191.96875 C 206.785156 205.984375 191.679688 214.84375 181.191406 227.554688 C 161.992188 250.828125 145.191406 277.34375 121.765625 299.578125 C 97.949219 322.195312 72.066406 339.984375 55.804688 369.871094 C 54.0625 373.070312 54.382812 379.847656 45.4375 375.992188 C 34.5 366.90625 38.878906 363.546875 36.617188 357.699219 C 52.449219 354.070312 53.265625 337.101562 63.410156 328.449219 C 67.0625 325.332031 73.410156 324.632812 77.15625 321.453125 C 89.65625 310.828125 105.25 303.6875 116.796875 292.722656 C 133.023438 277.320312 146.464844 259.703125 160.015625 240.339844 C 174.234375 220.019531 196.742188 204.871094 213.828125 184.78125 C 231.972656 163.441406 247.386719 139.582031 261.078125 114.632812 Z M 262.425781 112.996094 " fill-opacity="1" fill-rule="evenodd"/></svg>